<?xml version="1.0" standalone="no"?>
<!DOCTYPE svg PUBLIC "-//W3C//DTD SVG 20010904//EN"
 "http://www.w3.org/TR/2001/REC-SVG-20010904/DTD/svg10.dtd">
<svg version="1.0" xmlns="http://www.w3.org/2000/svg"
 width="300.000000pt" height="176.000000pt" viewBox="0 0 300.000000 176.000000"
 preserveAspectRatio="xMidYMid meet">
<metadata>
Created by potrace 1.10, written by Peter Selinger 2001-2011
</metadata>
<g transform="translate(0.000000,176.000000) scale(0.050000,-0.050000)"
fill="#ffffff" stroke="none">
<path d="M279 3495 c0 -14 -63 -91 -140 -171 l-139 -146 0 -380 c0 -280 7
-394 27 -434 15 -30 33 -88 39 -130 6 -42 39 -113 72 -158 45 -61 56 -90 42
-116 -10 -19 -12 -42 -4 -51 8 -8 4 -10 -8 -3 -11 7 -54 -27 -95 -76 l-73 -88
1 -376 c0 -288 7 -388 29 -426 16 -27 29 -72 29 -100 2 -77 113 -253 196 -309
148 -101 370 -63 514 87 88 91 106 96 195 50 89 -46 238 -41 337 10 l83 43 86
-79 c143 -131 169 -139 471 -135 249 3 274 7 333 51 l63 48 95 -63 c103 -69
142 -75 240 -40 58 22 70 19 129 -31 35 -30 89 -59 119 -65 42 -8 61 -29 81
-89 61 -186 235 -312 400 -290 58 8 101 5 109 -8 7 -12 109 -20 248 -20 l236
0 58 105 c48 88 58 128 58 248 l0 142 135 13 c75 7 184 7 243 0 93 -11 118 -7
173 32 62 45 65 45 168 13 339 -107 664 157 493 400 l-63 89 51 86 c57 97 66
223 21 283 -47 62 -38 79 87 156 141 87 384 341 467 489 34 59 73 112 88 118
35 13 40 746 5 746 -12 0 -50 23 -84 52 -132 111 -380 19 -649 -239 -178 -171
-203 -176 -205 -43 -4 276 -273 690 -448 690 -108 0 -254 -128 -353 -310 -93
-168 -87 -164 -169 -110 -91 60 -153 50 -262 -40 -114 -94 -133 -96 -212 -30
-64 54 -116 62 -179 29 -34 -19 -55 -8 -146 78 -146 139 -297 172 -441 96 -22
-11 -93 -19 -158 -16 -78 3 -133 -6 -164 -26 -64 -42 -97 -39 -183 18 -110 71
-197 81 -336 36 -74 -24 -153 -36 -209 -30 -56 5 -112 -3 -148 -22 -41 -21
-71 -25 -106 -11 -85 32 -141 20 -235 -52 -111 -85 -109 -85 -218 -8 -99 70
-121 66 -249 -45 -119 -104 -147 -64 -64 93 82 157 70 327 -29 409 -17 14 -31
38 -31 53 0 39 -420 41 -421 3z m317 -166 c141 -99 -75 -389 -290 -389 -51 0
-62 -132 -33 -375 15 -129 24 -130 87 -10 133 253 383 197 385 -88 2 -205
-129 -364 -280 -339 -41 7 -95 13 -119 13 -48 0 -47 -3 -105 242 -26 110 -42
246 -43 370 -1 170 -7 203 -42 241 -23 24 -36 58 -29 75 15 38 73 18 74 -26 1
-18 30 26 65 97 94 190 222 264 330 189z m4058 -204 c256 -277 266 -899 18
-1164 -26 -28 -54 -71 -61 -97 -16 -51 -70 -52 -101 -2 -11 18 -53 76 -94 130
-204 270 -165 834 78 1118 92 107 76 106 160 15z m-1505 -259 c68 -69 81 -161
56 -394 -23 -206 -10 -292 44 -292 23 0 27 15 18 60 -13 67 12 78 62 29 77
-78 -20 -184 -133 -145 -72 26 -85 78 -68 283 31 367 4 452 -142 453 -156 0
-236 -133 -200 -330 43 -230 24 -367 -56 -410 -122 -65 -155 161 -69 464 34
120 -11 243 -84 232 -60 -8 -71 40 -14 61 59 22 137 -11 137 -57 0 -63 28 -61
100 10 118 116 255 129 349 36z m-908 33 c73 -38 107 -138 101 -289 -16 -411
-16 -419 33 -426 49 -7 58 15 21 52 -19 19 -18 30 1 49 38 37 108 -59 80 -110
-95 -177 -252 -37 -226 201 42 375 13 484 -128 484 -94 0 -277 -159 -234 -202
26 -28 60 -378 43 -446 -7 -28 -35 -66 -63 -84 -124 -82 -172 140 -89 411 47
158 14 271 -80 271 -84 1 -62 59 26 66 68 6 77 1 97 -55 l21 -61 91 80 c96 85
216 108 306 59z m-1236 -111 c-36 -378 -30 -445 45 -520 110 -110 308 -11 274
138 -52 232 10 454 127 454 81 0 71 -260 -17 -433 -46 -92 25 -207 129 -207
61 0 71 -18 33 -56 -41 -41 -104 -27 -175 38 l-67 61 -46 -50 c-58 -62 -113
-80 -197 -65 -196 37 -267 340 -159 689 15 49 58 10 53 -49z m4838 -20 c29
-135 17 -330 -26 -434 -114 -271 -451 -614 -605 -614 -16 0 -43 -14 -60 -31
-38 -38 -128 -3 -96 37 11 13 12 42 3 64 -115 286 238 868 607 1001 149 54
160 52 177 -23z m-1806 -38 c9 -78 -28 -202 -89 -295 -57 -87 -59 -126 -16
-286 81 -303 24 -494 -164 -559 -253 -87 -446 216 -258 404 108 108 267 51
269 -96 1 -57 -64 -130 -98 -109 -27 17 -28 71 -1 71 31 0 24 72 -10 100 -105
88 -221 -116 -136 -241 100 -145 325 -81 356 102 21 122 -47 465 -89 447 -142
-58 -272 -21 -333 96 -38 73 -32 360 9 401 46 46 63 -11 40 -137 -45 -243 73
-386 252 -305 47 22 51 34 51 151 0 195 67 333 158 322 41 -5 53 -19 59 -66z
m-3127 -710 c48 -77 237 -118 368 -81 45 13 94 12 153 -3 65 -18 105 -18 161
-1 59 19 85 17 130 -6 96 -50 164 -37 263 51 50 44 98 80 106 80 8 0 54 -36
101 -80 53 -48 107 -80 136 -80 80 0 76 -28 -24 -156 -111 -142 -122 -149
-202 -119 -68 26 -139 -1 -254 -94 l-61 -51 -79 60 c-97 73 -135 74 -232 7
l-76 -52 -122 54 c-148 67 -218 59 -381 -40 -185 -113 -231 -78 -137 100 67
128 79 258 31 322 -40 52 -38 103 3 126 36 20 92 2 116 -37z m2141 -31 c44
-39 104 -76 134 -82 39 -9 55 -24 55 -54 0 -24 6 -89 13 -146 l12 -103 -85
-62 c-112 -81 -126 -79 -110 16 29 174 -220 395 -326 289 -15 -15 -39 -27 -54
-27 -39 0 -143 93 -125 112 9 8 26 5 39 -8 52 -52 162 -28 256 55 110 97 96
96 191 10z m-2436 -104 c81 -107 -40 -298 -220 -346 -47 -13 -98 -27 -113 -32
-23 -6 -26 -49 -16 -227 13 -260 26 -292 74 -185 130 291 406 246 406 -65 0
-216 -120 -339 -316 -324 -61 4 -116 13 -122 19 -39 39 -108 423 -109 607 -2
173 -7 206 -40 235 -44 37 -49 64 -16 85 13 8 34 -1 48 -19 21 -29 30 -20 67
73 80 197 270 293 357 179z m3625 16 c0 -11 41 -70 92 -132 50 -62 88 -115 85
-119 -4 -3 -56 -43 -117 -89 l-110 -82 -54 59 -54 60 39 111 c22 60 39 127 39
147 0 21 6 43 13 51 20 20 67 16 67 -6z m600 -129 c0 -15 13 -53 30 -85 44
-84 39 -98 -61 -157 -149 -87 -279 24 -148 127 37 29 85 73 107 98 45 51 72
58 72 17z m-2280 -70 c0 -9 -13 -49 -30 -89 -47 -113 -41 -130 55 -137 113 -8
101 -43 -20 -56 l-95 -10 -11 -150 c-19 -257 43 -459 152 -500 55 -21 64 -50
19 -67 -134 -52 -239 161 -240 483 l0 227 -63 -12 c-38 -7 -69 -3 -77 10 -20
31 -1 43 82 57 59 10 76 24 97 82 55 150 71 180 101 180 16 0 30 -8 30 -18z
m319 -51 c36 -43 7 -115 -44 -107 -59 9 -89 65 -56 104 32 40 69 41 100 3z
m-1279 -389 c-44 -234 4 -419 120 -459 144 -50 239 59 205 234 -47 238 57 466
178 391 32 -20 6 -234 -47 -383 l-44 -125 41 -55 c23 -30 63 -58 89 -61 91
-11 105 -21 78 -54 -40 -49 -127 -36 -191 28 l-58 58 -66 -58 c-153 -134 -347
-30 -384 207 -18 115 9 389 43 430 48 57 63 -10 36 -153z m1997 120 c30 -21
81 -42 113 -45 144 -17 77 -271 -106 -400 -68 -48 -72 -235 -6 -249 144 -31
239 -107 313 -250 62 -120 -29 -338 -141 -338 -96 0 -270 272 -270 421 0 108
-41 122 -141 48 -141 -104 -146 -269 -8 -269 51 0 58 60 11 93 -51 35 -38 67
27 67 85 0 100 -140 21 -192 -99 -65 -230 18 -230 145 0 89 137 239 237 259
47 10 63 24 63 56 0 23 5 60 11 82 10 37 1 40 -116 40 -293 0 -387 240 -176
451 141 141 275 168 398 81z m423 -90 c-72 -303 46 -564 223 -491 97 40 122
102 95 235 -42 204 11 377 119 389 98 11 98 -120 1 -439 -32 -104 25 -186 127
-186 83 0 68 -68 -17 -76 -45 -4 -78 9 -123 51 l-60 57 -63 -56 c-116 -103
-276 -62 -355 91 -75 145 -23 637 59 555 14 -14 13 -53 -6 -130z m-2735 5
c119 -131 106 -339 -25 -407 -126 -65 -318 -11 -360 101 -113 297 181 530 385
306z m1584 64 c30 -33 33 -68 24 -276 -14 -292 28 -450 100 -378 9 8 4 23 -11
32 -37 23 -11 86 31 77 95 -18 75 -163 -26 -188 -44 -12 -64 -3 -110 49 -61
68 -64 87 -56 333 11 325 15 300 -46 300 -68 0 -75 32 -13 65 63 32 66 32 107
-14z m2300 -13 c95 -95 -106 -242 -306 -224 -69 6 -73 2 -79 -58 -18 -180 228
-332 353 -218 45 40 83 41 83 2 0 -80 -205 -134 -323 -84 -174 73 -251 341
-134 468 126 136 328 192 406 114z"/>
<path d="M396 3224 c-71 -79 -132 -215 -107 -240 21 -20 231 97 264 148 96
146 -38 223 -157 92z"/>
<path d="M499 2631 c-128 -70 -187 -297 -101 -389 96 -102 217 -53 261 106 58
205 -27 355 -160 283z"/>
<path d="M4525 3055 c-164 -175 -222 -703 -104 -946 51 -106 115 -168 91 -89
-55 184 -19 730 48 730 72 0 106 -446 52 -675 -52 -224 67 -61 129 176 79 298
53 556 -75 744 -81 120 -84 121 -141 60z"/>
<path d="M4555 2610 c-41 -193 -36 -599 6 -557 26 26 43 405 24 517 -16 93
-18 96 -30 40z"/>
<path d="M2693 2481 c-23 -118 -16 -305 12 -296 30 10 45 245 19 315 -17 46
-18 45 -31 -19z"/>
<path d="M1829 2510 c-25 -59 -23 -315 3 -324 30 -10 50 181 30 284 -13 67
-19 74 -33 40z"/>
<path d="M1404 2766 c-28 -55 -42 -191 -24 -236 20 -51 33 -22 57 136 17 116
1 166 -33 100z"/>
<path d="M5661 2724 c-266 -91 -611 -627 -552 -857 14 -54 17 -51 59 63 80
219 346 582 393 536 53 -51 -140 -447 -297 -611 -88 -92 -49 -100 78 -16 245
162 448 495 448 735 0 175 -13 190 -129 150z"/>
<path d="M5424 2283 c-79 -100 -244 -400 -244 -444 0 -63 209 246 290 428 61
138 53 141 -46 16z"/>
<path d="M3935 2701 c-21 -31 -35 -85 -34 -140 l1 -91 40 76 c23 44 38 104 34
140 l-6 64 -35 -49z"/>
<path d="M414 1820 c-64 -55 -151 -229 -127 -253 48 -48 293 128 293 210 0
113 -67 131 -166 43z"/>
<path d="M540 1225 c-72 -24 -200 -211 -200 -291 0 -122 115 -198 217 -145
171 88 155 492 -17 436z"/>
<path d="M2009 1338 c-25 -40 -37 -285 -14 -271 22 14 65 182 65 254 0 42 -29
52 -51 17z"/>
<path d="M3420 1364 c-255 -41 -349 -372 -127 -445 142 -47 200 -15 215 118 7
65 30 150 50 189 49 97 -12 158 -138 138z"/>
<path d="M3693 1251 c-6 -17 -25 -31 -41 -31 -29 0 -72 -110 -72 -185 0 -52
25 -42 74 30 71 106 96 173 72 197 -14 14 -24 11 -33 -11z"/>
<path d="M3560 595 c0 -177 162 -457 241 -415 68 37 91 165 43 243 -94 153
-284 267 -284 172z"/>
<path d="M4418 1305 c-22 -57 -29 -220 -11 -239 11 -11 41 94 62 219 15 89
-19 103 -51 20z"/>
<path d="M993 1267 c-116 -115 -32 -347 125 -347 84 0 157 37 170 87 61 228
-146 410 -295 260z"/>
<path d="M4919 1275 c-105 -71 -102 -103 8 -90 103 11 193 61 193 105 0 47
-124 37 -201 -15z"/>
</g>
</svg>
